<svg xmlns="http://www.w3.org/2000/svg" width="48" height="48" viewBox="0 0 48 48"><defs><style>.a{fill:#fff;}</style></defs><g transform="translate(-24 72) rotate(-90)"><path class="a" d="M48,24A24,24,0,1,0,72,48,24,24,0,0,0,48,24Zm0,46.154A22.154,22.154,0,1,1,70.154,48,22.154,22.154,0,0,1,48,70.154Z" transform="translate(0 0)"/><path class="a" d="M58,45.1l-7.83,7.83-8-8a1,1,0,0,0-1.41,1.41l8.69,8.69a1,1,0,0,0,1.41,0l8.54-8.54A1,1,0,0,0,58,45.1Z" transform="translate(-2.006 -2.001)"/></g></svg>